<?xml version="1.0" encoding="utf-8"?>
<!-- Generator: Adobe Illustrator 25.0.1, SVG Export Plug-In . SVG Version: 6.00 Build 0)  -->
<svg version="1.1" id="Layer_1" xmlns="http://www.w3.org/2000/svg" xmlns:xlink="http://www.w3.org/1999/xlink" x="0px" y="0px"
	 viewBox="0 0 740 740" style="enable-background:new 0 0 740 740;" xml:space="preserve">
<style type="text/css">
	.st0{fill:#00A587;}
	.st1{fill:#03000C;}
</style>
<g>
	<g>
		<path class="st0" d="M491.8,284.2c5.9,46.1,11.3,89.3,17,132.5c0.7,5.2-0.4,7-6.2,7.3c-34.9,1.7-34.9,1.9-47.5-29.9
			c-5.3-13.2-10.4-26.5-16-39.6c-1.2-2.2-1.7-4.7-1.3-7.1c0.4-2.4,1.6-4.7,3.5-6.3C457.8,323,473.8,304.5,491.8,284.2z"/>
		<path class="st0" d="M286.6,322.8c5,25.4,9.9,49.2,14.3,73.1c1.3,7.4,7.4,16.8,2.2,21.8c-4.4,4.3-14.3-1.8-21.9-1.5
			c-20.2,0.8-29.6-8.6-32.8-28.1c-1.9-11.5-2.8-19.4,6.9-28.3C266.4,348.1,276.9,335.7,286.6,322.8L286.6,322.8z"/>
		<path class="st0" d="M343.6,369c0-14.2-0.2-28.5,0.1-42.7c0.1-5.6-1.5-7.5-7.5-7.7c-41.2-1.3-82.4-3-123.5-4.9
			c-6.5-0.3-9,1.5-10.4,7.8c-6.4,29.1-13.6,58.1-19.8,87.2c-1.7,8.2-4.9,11.2-13.6,10.3c-9.7-1-19.4-1.2-29.1-0.7
			c-7.3,0.4-8.7-2.6-8.6-8.9c0.6-43.7,1.6-87.5,1.1-131.2c-0.1-13.5,4.5-26.5,13-37.1c22.8-31.1,44.7-62.9,66.8-94.5
			c1.2-2.2,3.1-3.9,5.3-4.9c2.3-1,4.8-1.3,7.3-0.8c82.3,8.7,164.6,17.1,247,25.2c5.2,0.6,10.1,2.5,14.3,5.4
			c49,31.3,97.9,62.8,147.2,93.7c7.4,4.6,7.6,7.3,0.5,11.4c-1.5,0.8-2.9,1.9-4,3.2c-14.2,18-30.8,17.2-50.9,9.2
			c-24.3-9.6-49.9-16-74.8-24.2c-2.4-0.9-4.9-1.3-7.5-1c-2.5,0.3-5,1.1-7.1,2.5c-22.9,14-45.9,27.8-69.1,41.5
			c-2.1,1.1-3.9,2.7-5.2,4.6c-1.3,1.9-2.1,4.1-2.4,6.5c-5.1,30.1-10.9,60-15.5,90.1c-1.3,8.6-4.5,11.4-13.2,10.8
			c-11.1-0.6-22.2-0.7-33.3-0.1c-6.6,0.3-8.3-2-8-8.1c0.4-14.2,0.1-28.5,0.1-42.7L343.6,369z"/>
	</g>
	<g>
		<path class="st1" d="M100.9,528.2c8.3-12.3,20.3-15.9,34.2-14c7.7,0.6,14.9,4.1,20,9.8c5.2,5.6,7.9,13,7.7,20.6
			c0.5,15.7,0,31.4,0.3,47.1c0.1,4-2.2,3.8-4.9,3.8c-3,0-5.4,0.2-5.3-4.1c0.3-13.4,0.1-26.7,0.1-40c0-2.7-0.3-5.5-0.6-8.2
			c-2.5-19.3-19.7-22.5-32.6-18.2c-8.1,2.7-13.3,10.8-13.4,21.1c-0.2,14.5-0.1,29.1,0,43.6c0,4-0.5,6.1-5.5,6.1
			c-5,0-5.5-2.3-5.4-6.2c0.1-13.7,0.3-27.5,0-41.2C95,529.9,82,519.9,64.8,524.3c-4.2,1.1-7.9,3.4-10.7,6.7
			c-2.7,3.3-4.3,7.4-4.5,11.6c-1.2,15.7-1.4,31.4-0.6,47.1c0.1,6.2-3.1,6-7.4,5.7c-1.8-0.1-3.1-0.6-3-2.7
			c0.5-17.2-1.3-34.6,0.9-51.7c1.7-13.2,8.9-22.9,22.6-25.9c14.6-3.3,28-1.2,37.6,11.7C100,527.2,100.3,527.6,100.9,528.2z"/>
		<path class="st1" d="M630,527.8c5.2-6.1,12-10.5,19.8-12.7c7.7-2.2,15.9-2.1,23.6,0.3c19.7,5.2,29.6,21.8,28.1,45.5
			c-0.4,7.8-3.2,15.3-8,21.5c-4.8,6.2-11.4,10.9-18.9,13.4c-7.8,2.6-16.2,3-24.2,1c-8-2-15.2-6.2-20.8-12.2
			c-6.6-7.5-10.1-17.1-10-27.1c-0.2-31.4,0-62.8-0.1-94.2c0-3.5,0.4-6.2,5-6.3c4.8-0.1,5.6,2.4,5.6,6.3
			C630,484.5,630,505.4,630,527.8z M630,555.8c-0.6,25.8,21.2,37.7,43,30.1c13.5-4.7,20.9-20.4,18-36.6
			c-2.1-12.1-7.9-21.4-20.7-24.8C647.3,518.3,630,531.9,630,555.8L630,555.8z"/>
		<path class="st1" d="M582.7,528c0-22.5,0-43.7,0-64.8c0-3.6,0.5-6.1,5.1-6c3.8,0.1,5.3,1.4,5.3,5.2c-0.1,32,0.2,64-0.2,96
			c-0.3,23.8-17.9,39.7-42.2,39.4c-23-0.3-39.7-17.4-39.8-40.8c-0.1-21.8,10.2-37.2,28.8-41.7C555.6,511.4,570.2,514,582.7,528z
			 M551.8,588c18.9,0,30.9-12.5,30.9-32.2c0-20.3-11.8-32.7-31-32.7c-18.9,0-30.6,12.5-30.7,32.5C521,575.3,533,588,551.8,588
			L551.8,588z"/>
		<path class="st1" d="M391.2,529.6c0-22.2,0.1-43.7-0.1-65.2c0-3.8,0.7-6,5.2-5.9c3.6,0.1,5,1.4,4.9,5c-0.1,32.6,0.3,65.1-0.3,97.7
			c-0.4,22.4-18.1,38.1-41.1,38c-5.3,0.1-10.5-0.7-15.4-2.6c-4.9-1.9-9.4-4.7-13.2-8.3c-3.8-3.6-6.8-7.9-8.9-12.6
			c-2.1-4.8-3.2-9.9-3.3-15c-0.8-20.9,7.7-36.6,24.3-42.4C361.2,511.9,377.6,514.3,391.2,529.6z M360.4,589.4
			c18.7-0.1,31-13.2,30.8-32.5c-0.2-20.1-12.3-32.5-31.5-32.4c-18.7,0.2-30.5,12.9-30.4,32.8C329.4,577,341.5,589.5,360.4,589.4
			L360.4,589.4z"/>
		<path class="st1" d="M457.9,597.8c-11.1-0.1-21-2.8-27.7-12.3c-1.7-2.5-4-5.5,0-8.1c3.4-2.2,5.6-0.8,8,2.1c4.4,4.9,10.5,8,17.1,9
			c6.6,0.9,13.3-0.5,18.9-3.9c1.9-1.1,3.4-2.8,4.4-4.7c1-1.9,1.4-4.1,1.2-6.3c-0.1-2.1-0.9-4.1-2.2-5.7c-1.3-1.6-3.1-2.8-5.1-3.4
			c-7.6-2.5-15.3-4.4-23.2-5.9c-3.3-0.8-6.5-1.8-9.7-3.1c-2.9-1.2-5.4-3-7.4-5.4c-2-2.3-3.5-5.1-4.2-8c-0.8-3-0.8-6.1-0.2-9
			c0.6-3,2-5.8,3.9-8.2c10-13.9,44.9-16.4,55.4,1.6c1.4,2.3,4.4,4.9,0.4,7.5c-3.4,2.2-5.8,1.6-8.4-2c-7.2-10-26.7-12.1-36.3-4.2
			c-1.8,1.2-3.1,2.8-4,4.7c-0.8,1.9-1.1,4-0.8,6.1s1.3,4,2.7,5.5c1.4,1.6,3.2,2.7,5.3,3.2c6.4,2.2,13.1,3.3,19.7,4.9
			c4.7,1,9.2,2.6,13.4,4.9c3.4,1.7,6.2,4.2,8.2,7.4c2,3.2,3,6.8,3.1,10.5c0,3.7-1,7.4-3,10.5c-2,3.2-4.8,5.7-8.1,7.4
			C472.7,596.5,465.3,598.2,457.9,597.8L457.9,597.8z"/>
		<path class="st1" d="M300.6,569.4c0,7.1-0.2,14.1,0.1,21.2c0.1,3.8-1,5.1-5,5c-3.7-0.1-5.4-0.8-5.4-4.9
			c0.2-13.1,0.2-26.3,0.1-39.4c-0.2-20.1-15.1-31.5-34.9-26.9c-5.3,1.1-10.1,4-13.6,8.2c-3.4,4.2-5.4,9.4-5.4,14.7
			c-0.6,14.1-0.4,28.2-0.3,42.4c0,4-0.5,6-5.4,6.1c-5.2,0.1-5.3-2.5-5.2-6.2c0.5-14.9-1.1-29.8,0.9-44.7c2.6-20.2,17-31.5,38.9-31
			c4.5-0.1,9,0.7,13.2,2.3c4.2,1.6,8,4,11.3,7.1c3.3,3.1,5.9,6.8,7.7,10.8c1.8,4.1,2.8,8.5,2.9,12.9c0.5,7.4,0.1,14.9,0.1,22.4
			L300.6,569.4z"/>
		<path class="st1" d="M199.4,556c0,11.4-0.2,22.7,0.1,34.1c0.1,4-0.9,5.4-5.3,5.4c-4.7,0.1-5.1-2.1-5-5.7c0.1-22.3,0.1-44.7,0-67
			c0-3.6-0.1-6.7,5-6.8s5.3,2.8,5.2,6.5C199.3,533.7,199.4,544.9,199.4,556z"/>
		<path class="st1" d="M185.6,491.3c0-2.3,1-4.4,2.6-6c1.6-1.6,3.8-2.5,6.1-2.5c1.2,0,2.4,0.2,3.5,0.6c1.1,0.4,2.1,1.1,2.9,2
			c0.8,0.9,1.4,1.9,1.8,3c0.4,1.1,0.5,2.3,0.4,3.4c-0.1,2.2-1.1,4.3-2.8,5.8c-1.7,1.5-3.9,2.3-6.1,2.3c-2.3-0.1-4.4-1-6-2.6
			C186.4,495.7,185.5,493.6,185.6,491.3L185.6,491.3z"/>
	</g>
</g>
</svg>
